HIERARCHY
ROOT Hips
{
	OFFSET -0.001795 -0.223333 0.028219
	CHANNELS 6 Xposition Yposition Zposition Zrotation Yrotation Xrotation 
	JOINT LeftUpLeg
	{
		OFFSET 0.069520 -0.091406 -0.006815
		CHANNELS 3 Zrotation Yrotation Xrotation
		JOINT LeftLeg
		{
			OFFSET 0.034277 -0.375199 -0.004496
			CHANNELS 3 Zrotation Yrotation Xrotation
			JOINT LeftFoot
			{
				OFFSET -0.013596 -0.397961 -0.043693
				CHANNELS 3 Zrotation Yrotation Xrotation
				JOINT LeftToe
				{
					OFFSET 0.026358 -0.055791 0.119288
					CHANNELS 3 Zrotation Yrotation Xrotation
					End Site
					{
						OFFSET 0.000000 0.000000 0.000000
					}
				}
			}
		}
	}
	JOINT RightUpLeg
	{
		OFFSET -0.067670 -0.090522 -0.004320
		CHANNELS 3 Zrotation Yrotation Xrotation
		JOINT RightLeg
		{
			OFFSET -0.038290 -0.382569 -0.008850
			CHANNELS 3 Zrotation Yrotation Xrotation
			JOINT RightFoot
			{
				OFFSET 0.015774 -0.398415 -0.042312
				CHANNELS 3 Zrotation Yrotation Xrotation
				JOINT RightToe
				{
					OFFSET -0.025372 -0.048144 0.123348
					CHANNELS 3 Zrotation Yrotation Xrotation
					End Site
					{
						OFFSET 0.000000 0.000000 0.000000
					}
				}
			}
		}
	}
	JOINT Spine
	{
		OFFSET -0.002533 0.108963 -0.026696
		CHANNELS 3 Zrotation Yrotation Xrotation
		JOINT Spine1
		{
			OFFSET 0.005487 0.135180 0.001092
			CHANNELS 3 Zrotation Yrotation Xrotation
			JOINT Spine2
			{
				OFFSET 0.001457 0.052922 0.025425
				CHANNELS 3 Zrotation Yrotation Xrotation
				JOINT Neck
				{
					OFFSET -0.002778 0.213870 -0.042857
					CHANNELS 3 Zrotation Yrotation Xrotation
					JOINT Head
					{
						OFFSET 0.005152 0.064970 0.051349
						CHANNELS 3 Zrotation Yrotation Xrotation
						End Site
						{
							OFFSET 0.000000 0.000000 0.000000
						}
					}
				}
				JOINT LeftShoulder
				{
					OFFSET 0.078845 0.121749 -0.034090
					CHANNELS 3 Zrotation Yrotation Xrotation
					JOINT LeftArm
					{
						OFFSET 0.090977 0.030469 -0.008868
						CHANNELS 3 Zrotation Yrotation Xrotation
						JOINT LeftForeArm
						{
							OFFSET 0.259612 -0.012772 -0.027456
							CHANNELS 3 Zrotation Yrotation Xrotation
							JOINT LeftHand
							{
								OFFSET 0.249234 0.008986 -0.001171
								CHANNELS 3 Zrotation Yrotation Xrotation
								End Site
								{
									OFFSET 0.000000 0.000000 0.000000
								}
							}
						}
					}
				}
				JOINT RightShoulder
				{
					OFFSET -0.081759 0.118833 -0.038615
					CHANNELS 3 Zrotation Yrotation Xrotation
					JOINT RightArm
					{
						OFFSET -0.096012 0.032551 -0.009143
						CHANNELS 3 Zrotation Yrotation Xrotation
						JOINT RightForeArm
						{
							OFFSET -0.253742 -0.013329 -0.021401
							CHANNELS 3 Zrotation Yrotation Xrotation
							JOINT RightHand
							{
								OFFSET -0.255298 0.007772 -0.005559
								CHANNELS 3 Zrotation Yrotation Xrotation
								End Site
								{
									OFFSET 0.000000 0.000000 0.000000
								}
							}
						}
					}
				}
			}
		}
	}
}
MOTION
Frames: 16
Frame Time: 0.050000
0.069513 0.947240 0.070351 0.659706 11.940533 7.442953 6.598835 -0.353169 0.760396 -6.024865 0.493910 2.220106 16.633745 29.269102 13.456033 0.000000 0.000000 0.000000 -6.355142 0.575362 -23.617278 2.965300 -0.548997 15.202041 3.331944 4.739288 7.747528 0.000000 0.000000 0.000000 18.235170 -4.372314 15.151589 1.967278 -0.041793 -13.612438 2.787495 -7.168142 20.606203 24.012588 -18.014213 -9.727822 0.000000 0.000000 0.000000 -3.153804 -31.320395 12.007190 -22.776179 -25.566351 0.384887 9.637303 -57.949713 -2.793250 0.000000 0.000000 0.000000 25.446863 19.575998 10.058592 30.150434 39.633458 4.623263 2.639992 39.975378 2.496976 0.000000 0.000000 0.000000 
0.070371 0.947182 0.069928 0.574615 12.161775 7.207146 6.485100 -0.343160 0.827752 -5.952647 0.486932 2.548517 16.873763 29.555673 13.386685 0.000000 0.000000 0.000000 -6.329847 0.560662 -23.654471 2.935017 -0.555468 15.390047 3.397553 4.729561 8.124823 0.000000 0.000000 0.000000 18.323790 -4.398603 15.200039 1.644160 0.066835 -13.532659 2.778631 -7.463818 21.010258 24.430817 -18.637051 -9.143492 0.000000 0.000000 0.000000 -3.353658 -31.340672 12.068034 -22.409465 -26.390635 0.453985 10.402905 -57.204078 -3.159400 0.000000 0.000000 0.000000 24.817837 19.780611 10.069646 29.351069 39.901057 4.432774 0.813285 38.930560 1.784693 0.000000 0.000000 0.000000 
0.070929 0.947128 0.069391 0.702646 12.763787 7.095125 6.314646 -0.336938 0.822679 -5.865697 0.471779 2.883159 16.797289 29.416716 13.465776 0.000000 0.000000 0.000000 -6.485926 0.481266 -23.770242 3.143576 -0.647431 15.685282 3.505541 4.951181 8.227882 0.000000 0.000000 0.000000 18.277175 -4.401424 15.167295 1.983211 -0.033879 -13.432659 2.302650 -7.511333 20.959191 24.891429 -19.036619 -9.019060 0.000000 0.000000 0.000000 -3.455270 -31.718391 12.206810 -22.568520 -27.184437 0.596168 10.729563 -56.232281 -3.306278 0.000000 0.000000 0.000000 24.804644 19.659607 10.114954 27.839165 40.024241 4.024420 0.109055 37.976295 1.500682 0.000000 0.000000 0.000000 
0.071095 0.947358 0.068903 0.651832 13.227943 6.983997 6.518332 -0.358222 0.777433 -5.770576 0.458768 3.468723 16.542414 29.056248 13.746200 0.000000 0.000000 0.000000 -6.544301 0.432745 -23.919836 3.422422 -0.754114 15.936388 3.586438 4.921790 8.771864 0.000000 0.000000 0.000000 18.513923 -4.469805 15.156173 1.954169 -0.023262 -13.248915 2.094321 -7.821920 21.072184 25.272415 -19.495066 -8.684052 0.000000 0.000000 0.000000 -3.824652 -31.743424 12.325572 -22.253916 -28.380247 0.722809 12.216391 -55.032183 -3.980678 0.000000 0.000000 0.000000 24.328733 20.063638 10.289874 27.399352 40.285114 3.950649 -1.001817 37.010677 1.091638 0.000000 0.000000 0.000000 
0.070784 0.947947 0.068545 0.795740 13.539592 7.017582 6.272164 -0.349248 0.562613 -5.677378 0.445135 3.824767 16.272971 28.722696 13.665389 0.000000 0.000000 0.000000 -6.553251 0.405987 -24.008760 3.291042 -0.739372 16.152377 3.807364 5.342613 8.905494 0.000000 0.000000 0.000000 18.616462 -4.632556 15.638805 1.846671 0.043404 -13.753124 1.923732 -7.930147 21.611839 25.229010 -19.494898 -8.752190 0.000000 0.000000 0.000000 -3.851606 -31.893714 12.380346 -22.405089 -29.104650 0.823120 13.958905 -53.735943 -4.757892 0.000000 0.000000 0.000000 23.792923 20.173058 10.338272 27.116545 40.858961 3.935972 -1.930920 36.367872 0.787383 0.000000 0.000000 0.000000 
0.070122 0.948570 0.068277 0.876949 13.657490 7.424567 6.270649 -0.371104 -0.031671 -5.628259 0.437653 4.248423 15.717964 28.062379 13.593049 0.000000 0.000000 0.000000 -6.523382 0.405798 -24.246550 3.224627 -0.714236 15.878612 3.926358 5.574502 8.975709 0.000000 0.000000 0.000000 18.786054 -4.732455 15.739551 1.858874 0.032387 -13.606361 1.612001 -7.767549 21.351062 24.795236 -19.345415 -8.082252 0.000000 0.000000 0.000000 -3.787041 -31.818936 12.336801 -22.622887 -29.762563 0.961764 15.481825 -52.109017 -5.340323 0.000000 0.000000 0.000000 23.374725 20.333736 10.443784 27.787390 41.541698 4.282916 -2.461899 35.526414 0.628835 0.000000 0.000000 0.000000 
0.069100 0.949121 0.067909 1.115289 13.730654 7.611083 6.122866 -0.370827 -0.286177 -5.623775 0.435332 4.606661 15.518079 27.821434 13.627777 0.000000 0.000000 0.000000 -6.607562 0.380958 -24.338360 3.005226 -0.653764 15.823394 4.048706 5.767229 9.133442 0.000000 0.000000 0.000000 18.744719 -4.854813 16.195619 1.642348 0.126946 -14.117439 1.328755 -7.905478 21.861172 23.971789 -18.936220 -7.561203 0.000000 0.000000 0.000000 -3.755886 -31.509530 12.214696 -22.849224 -29.939564 0.995543 16.877114 -50.494055 -5.802153 0.000000 0.000000 0.000000 23.272558 20.380608 10.459745 28.320710 42.288903 4.559756 -2.368780 35.266700 0.667628 0.000000 0.000000 0.000000 
0.067897 0.949669 0.067322 1.239358 13.893904 7.905445 6.235289 -0.396860 -0.752102 -5.746247 0.444748 5.014904 15.034034 27.246113 13.344239 0.000000 0.000000 0.000000 -6.584279 0.370555 -24.665514 2.837009 -0.611239 15.785690 4.098055 5.809383 9.310250 0.000000 0.000000 0.000000 18.663039 -4.898651 16.332323 1.688270 0.099631 -13.783563 1.171557 -7.734769 21.550164 23.404287 -18.661220 -6.874938 0.000000 0.000000 0.000000 -3.746703 -31.139663 12.061027 -23.235306 -30.248026 1.104879 17.228865 -48.233445 -5.679870 0.000000 0.000000 0.000000 22.968137 20.261527 10.419053 29.321491 43.001997 5.041555 -2.692021 34.806579 0.591518 0.000000 0.000000 0.000000 
0.066560 0.949993 0.066541 1.437996 13.992500 8.178421 6.118581 -0.408474 -1.250891 -5.629860 0.428639 5.388770 14.810584 26.980787 13.490092 0.000000 0.000000 0.000000 -6.619649 0.354236 -24.828210 2.878387 -0.624491 15.729779 4.010894 5.599765 9.416209 0.000000 0.000000 0.000000 18.494452 -4.975771 16.703999 1.595104 0.146066 -14.129131 0.866205 -7.346933 21.982395 23.120696 -18.234356 -7.428793 0.000000 0.000000 0.000000 -3.710192 -31.181298 12.020978 -23.341645 -29.856895 1.029141 17.977484 -46.203175 -5.790597 0.000000 0.000000 0.000000 23.202584 20.220626 10.613064 29.981168 43.791585 5.383322 -2.688551 34.523809 0.627002 0.000000 0.000000 0.000000 
0.065343 0.950292 0.065805 1.455758 14.095828 8.449777 6.255728 -0.434849 -1.694138 -5.724513 0.436500 5.523404 14.585922 26.722056 13.302042 0.000000 0.000000 0.000000 -6.430436 0.384594 -25.194726 2.680128 -0.575617 15.827232 3.829772 5.251067 9.401120 0.000000 0.000000 0.000000 18.526618 -5.047912 16.857186 1.188418 0.273955 -14.068378 0.674718 -6.919577 21.943827 22.832843 -18.074711 -7.133610 0.000000 0.000000 0.000000 -3.671602 -31.207357 11.982841 -23.550092 -29.350687 0.970749 17.781850 -44.967224 -5.586745 0.000000 0.000000 0.000000 23.304898 19.992274 10.659481 30.833840 44.201878 5.741164 -2.824567 34.789284 0.635293 0.000000 0.000000 0.000000 
0.064560 0.950416 0.065361 1.567042 14.310376 8.851424 6.225325 -0.460744 -2.330826 -5.560689 0.412500 5.630437 14.491402 26.616761 13.696946 0.000000 0.000000 0.000000 -6.480587 0.353590 -25.514318 2.679762 -0.577902 15.669623 3.618784 4.803569 9.515503 0.000000 0.000000 0.000000 18.323464 -5.064902 16.969886 0.847344 0.393409 -14.299667 0.515155 -6.378180 22.312659 22.520477 -17.727070 -7.408840 0.000000 0.000000 0.000000 -3.719365 -31.261980 11.948904 -23.599796 -28.618312 0.832908 18.194898 -44.681473 -5.791260 0.000000 0.000000 0.000000 23.248009 19.880365 10.843545 31.744009 44.760613 6.125924 -3.493821 34.517869 0.486917 0.000000 0.000000 0.000000 
0.064263 0.950445 0.065240 1.579139 14.434577 9.083884 6.206354 -0.469073 -2.477274 -5.490535 0.402476 5.473603 14.263698 26.339583 13.469881 0.000000 0.000000 0.000000 -6.354078 0.373418 -25.631447 2.599803 -0.555834 15.546471 3.222899 4.154574 9.165798 0.000000 0.000000 0.000000 18.172180 -5.013373 16.831906 0.510410 0.500714 -14.295065 0.324313 -5.845245 22.463298 22.426983 -17.709520 -7.256682 0.000000 0.000000 0.000000 -4.322695 -31.521295 12.133962 -23.908183 -27.348426 0.657463 18.184893 -44.719822 -5.865683 0.000000 0.000000 0.000000 23.403523 19.732694 11.007631 31.897307 44.805336 6.143037 -3.469534 34.767077 0.533070 0.000000 0.000000 0.000000 
0.064420 0.950541 0.065308 1.666733 15.058744 9.205905 6.378242 -0.494238 -2.717936 -5.640413 0.407662 5.410000 14.105952 26.132308 14.032393 0.000000 0.000000 0.000000 -6.451625 0.307360 -25.484316 2.777847 -0.619056 15.238018 2.705457 3.081249 9.403962 0.000000 0.000000 0.000000 17.978423 -4.967442 16.678159 0.107420 0.633166 -14.036230 0.142436 -5.545995 22.412143 22.440679 -17.700560 -7.280567 0.000000 0.000000 0.000000 -5.066332 -31.758275 12.339957 -24.431391 -26.362421 0.554803 17.950386 -45.590559 -5.955365 0.000000 0.000000 0.000000 23.383366 19.440386 11.055785 32.046710 44.694367 6.134038 -3.356655 35.390850 0.616094 0.000000 0.000000 0.000000 
0.064733 0.950514 0.065265 1.809867 15.582941 9.416962 6.420113 -0.506304 -2.762936 -5.609630 0.395808 5.158193 13.643615 25.549321 13.644706 0.000000 0.000000 0.000000 -6.535789 0.250069 -25.488679 2.897099 -0.675280 15.303741 1.851580 1.550133 8.946451 0.000000 0.000000 0.000000 17.462693 -4.700661 15.981475 -0.419934 0.808531 -13.957148 0.033688 -5.288567 23.226359 22.588063 -17.936958 -7.305177 0.000000 0.000000 0.000000 -5.911405 -32.147944 12.611605 -25.008253 -25.691833 0.457646 18.167748 -45.947304 -6.164129 0.000000 0.000000 0.000000 23.407365 19.376115 11.263767 31.361895 44.445667 5.732094 -3.596595 35.772370 0.571666 0.000000 0.000000 0.000000 
0.065107 0.950609 0.065077 1.816190 16.475388 9.462181 6.709526 -0.536608 -2.878253 -5.593501 0.379640 4.919629 13.204699 24.994669 13.877973 0.000000 0.000000 0.000000 -6.576719 0.179278 -25.247108 2.990725 -0.722578 14.951226 1.165914 0.233469 8.990023 0.000000 0.000000 0.000000 17.237540 -4.577880 15.520927 -0.979426 0.997657 -13.753732 -0.323268 -5.102315 23.642684 22.774776 -18.209641 -7.181662 0.000000 0.000000 0.000000 -6.612495 -32.544349 12.836762 -25.688214 -25.307988 0.439433 18.470530 -45.844768 -6.337753 0.000000 0.000000 0.000000 23.161573 19.260863 11.415670 30.780790 44.362147 5.454758 -3.832850 35.696509 0.518765 0.000000 0.000000 0.000000 
0.065374 0.950468 0.064690 1.940363 17.349951 9.605428 6.973272 -0.567838 -2.999459 -5.501701 0.356052 4.754748 12.628108 24.267143 13.750172 0.000000 0.000000 0.000000 -6.685006 0.085824 -25.217579 3.312522 -0.848884 14.977624 0.054107 -1.851363 8.582633 0.000000 0.000000 0.000000 16.554906 -4.291674 14.845120 -1.273185 1.111981 -13.864929 -0.891953 -4.710158 24.745261 23.346524 -18.736449 -7.457927 0.000000 0.000000 0.000000 -7.400978 -33.132660 13.101093 -26.072608 -25.510685 0.459250 19.202940 -44.763661 -6.559284 0.000000 0.000000 0.000000 23.186452 19.150120 11.730099 29.714624 44.073793 4.895875 -4.987492 35.307854 0.182942 0.000000 0.000000 0.000000 
